# WaveFront *.obj file (generated by Autodesk ATF)

mtllib 21964296-f986-457f-805a-06eafdd0d602.mtl

g Body1

v -0.076524 0.066491 0.000000
v -0.076524 5.566491 0.000000
v -0.076524 5.566491 1.000000
v -0.076524 0.066491 1.000000
v -7.376524 0.066491 0.000000
v -7.376524 0.066491 1.000000
v -7.376524 5.566491 0.000000
v -7.376524 5.566491 1.000000
vt 0.000000 0.000000 0.000000
vt 550.000000 0.000000 0.000000
vt 0.000000 100.000000 0.000000
vt 550.000000 100.000000 0.000000
vt 0.000000 0.000000 0.000000
vt 730.000000 0.000000 0.000000
vt 0.000000 100.000000 0.000000
vt 730.000000 100.000000 0.000000
vt -0.000000 0.000000 0.000000
vt 550.000000 0.000000 0.000000
vt -0.000000 100.000000 0.000000
vt 550.000000 100.000000 0.000000
vt 0.000000 0.000000 0.000000
vt 730.000000 0.000000 0.000000
vt -0.000000 100.000000 0.000000
vt 730.000000 100.000000 0.000000
vt 365.000000 275.000000 0.000000
vt -365.000000 275.000000 0.000000
vt 365.000000 -275.000000 0.000000
vt -365.000000 -275.000000 0.000000
vt 365.000000 275.000000 0.000000
vt -365.000000 275.000000 0.000000
vt 365.000000 -275.000000 0.000000
vt -365.000000 -275.000000 0.000000
vn 100.000000 0.000000 0.000000
vn 100.000000 0.000000 0.000000
vn 100.000000 0.000000 0.000000
vn 100.000000 0.000000 0.000000
vn 0.000000 -100.000000 0.000000
vn 0.000000 -100.000000 0.000000
vn 0.000000 -100.000000 0.000000
vn 0.000000 -100.000000 0.000000
vn -100.000000 0.000000 0.000000
vn -100.000000 0.000000 0.000000
vn -100.000000 0.000000 0.000000
vn -100.000000 0.000000 0.000000
vn 0.000000 100.000000 0.000000
vn 0.000000 100.000000 0.000000
vn 0.000000 100.000000 0.000000
vn 0.000000 100.000000 0.000000
vn 0.000000 0.000000 100.000000
vn 0.000000 0.000000 100.000000
vn 0.000000 0.000000 100.000000
vn 0.000000 0.000000 100.000000
vn -0.000000 0.000000 -100.000000
vn -0.000000 0.000000 -100.000000
vn -0.000000 0.000000 -100.000000
vn -0.000000 0.000000 -100.000000
usemtl Steel_-_Satin
f 1/1/1 2/2/2 4/3/3
f 4/3/3 2/2/2 3/4/4
f 5/5/5 1/6/6 6/7/7
f 6/7/7 1/6/6 4/8/8
f 7/9/9 5/10/10 8/11/11
f 8/11/11 5/10/10 6/12/12
f 2/13/13 7/14/14 3/15/15
f 3/15/15 7/14/14 8/16/16
f 3/17/17 8/18/18 4/19/19
f 4/19/19 8/18/18 6/20/20
f 7/21/21 2/22/22 5/23/23
f 5/23/23 2/22/22 1/24/24
# 8 vertices
# 24 texture params
# 24 normals
# 12 facets

# 1 groups
